<svg width="804" height="515" viewBox="0 0 804 515" fill="none" xmlns="http://www.w3.org/2000/svg">
<g clip-path="url(#clip0_91_288)">
<path d="M704.542 475.5C730.398 449.721 730.398 407.925 704.542 382.146C678.687 356.367 636.767 356.367 610.912 382.146C585.057 407.925 585.057 449.721 610.912 475.5C636.767 501.278 678.687 501.278 704.542 475.5Z" fill="#2F2E41"/>
<path d="M657.358 434.895C669.559 432.202 677.261 420.157 674.561 407.991C671.86 395.826 659.779 388.147 647.577 390.84C635.376 393.533 627.674 405.578 630.375 417.743C633.076 429.909 645.156 437.588 657.358 434.895Z" fill="white"/>
<path d="M644.932 414.383C648.999 413.486 651.567 409.471 650.666 405.416C649.766 401.36 645.739 398.801 641.672 399.698C637.605 400.596 635.037 404.611 635.938 408.666C636.838 412.721 640.865 415.281 644.932 414.383Z" fill="#3F3D56"/>
<path d="M655.111 384.196C628.035 384.146 609.027 379.324 609.072 354.866C609.118 330.407 631.104 310.62 658.181 310.67C685.258 310.72 707.171 330.588 707.125 355.046C707.08 379.505 682.188 384.246 655.111 384.196Z" fill="#00C3A5"/>
<path d="M761.496 439.857C753.73 466.72 731.053 485.525 707.397 501.499C704.094 503.73 700.79 505.909 697.485 508.038C697.463 508.047 697.44 508.068 697.417 508.078C697.258 508.18 697.099 508.282 696.951 508.385C696.269 508.823 695.586 509.262 694.91 509.695L695.281 509.862C695.281 509.862 695.646 510.055 695.247 509.893C695.128 509.843 695.004 509.799 694.885 509.749C681.143 504.223 667.157 498.289 656.625 487.937C645.701 477.187 639.316 460.326 645.232 446.204C646.009 444.354 646.992 442.596 648.16 440.964C648.64 440.279 649.157 439.624 649.695 438.981C652.958 435.01 657.223 431.977 662.051 430.195C666.879 428.412 672.097 427.944 677.167 428.838C682.237 429.733 686.976 431.957 690.898 435.283C694.82 438.609 697.782 442.917 699.481 447.763C701.219 431.63 687.876 418.116 675.036 408.144C662.19 398.178 647.593 387.325 645.11 371.281C643.723 362.354 646.836 353.704 652.508 346.759C652.683 346.548 652.859 346.338 653.039 346.133C659.943 338.044 669.653 332.851 680.23 331.589C699.927 329.547 719.06 339.943 733.37 353.598C756.402 375.568 770.325 409.313 761.496 439.857Z" fill="#CCCCCC"/>
<path d="M724.472 404.72C728.252 410.584 731.155 416.966 733.088 423.666C734.722 429.654 735.45 435.851 735.246 442.054C734.719 454.816 731.125 467.266 724.768 478.356C719.979 486.769 714.142 494.545 707.397 501.499C704.094 503.73 700.79 505.909 697.485 508.038C697.463 508.047 697.44 508.068 697.417 508.078C697.258 508.18 697.099 508.282 696.951 508.385C696.269 508.823 695.586 509.262 694.91 509.695C694.91 509.695 695.646 510.055 695.247 509.893C695.128 509.843 695.004 509.799 694.885 509.749C696.117 499.681 694.91 489.465 691.367 479.957C687.823 470.45 682.045 461.928 674.518 455.105C666.972 448.387 657.941 443.541 648.16 440.964C648.64 440.279 649.157 439.624 649.695 438.981C653.472 440.037 657.149 441.424 660.681 443.126C673.309 449.172 683.648 459.111 690.169 471.472C696.021 482.696 698.539 495.351 697.429 507.953C697.994 507.442 698.559 506.921 699.107 506.405C709.55 496.698 718.825 485.556 725.102 472.697C730.548 461.807 733.224 449.75 732.896 437.586C732.384 424.323 727.083 412.038 719.409 401.343C710.999 389.933 701.063 379.723 689.877 370.997C678.605 361.995 666.27 354.402 653.148 348.388C652.852 348.25 652.621 348.005 652.502 347.701C652.382 347.398 652.385 347.061 652.508 346.759C652.595 346.489 652.786 346.263 653.04 346.133C653.17 346.077 653.311 346.051 653.453 346.057C653.594 346.063 653.733 346.1 653.858 346.167C655.478 346.911 657.087 347.665 658.683 348.451C671.976 355.002 684.402 363.174 695.674 372.78C706.562 382.035 716.813 392.61 724.472 404.72Z" fill="white"/>
<path d="M113.32 514.309C122.577 514.309 130.081 511.503 130.081 508.042C130.081 504.581 122.577 501.775 113.32 501.775C104.063 501.775 96.5586 504.581 96.5586 508.042C96.5586 511.503 104.063 514.309 113.32 514.309Z" fill="#2F2E41"/>
<path d="M153.546 513.473C162.803 513.473 170.308 510.667 170.308 507.206C170.308 503.745 162.803 500.939 153.546 500.939C144.289 500.939 136.785 503.745 136.785 507.206C136.785 510.667 144.289 513.473 153.546 513.473Z" fill="#2F2E41"/>
<path d="M206.949 408.139C222.788 399.035 233.305 387.636 230.438 382.678C227.572 377.721 212.408 381.082 196.569 390.186C180.73 399.29 170.213 410.689 173.08 415.646C175.946 420.604 191.11 417.243 206.949 408.139Z" fill="#2F2E41"/>
<path d="M192.08 430.462C197.937 394.476 173.427 360.569 137.334 354.729C101.241 348.89 67.2337 373.328 61.3766 409.314C55.5196 445.3 80.0306 479.207 116.123 485.047C152.216 490.886 186.223 466.448 192.08 430.462Z" fill="#2F2E41"/>
<path d="M116.672 471.694H96.5586V507.624H116.672V471.694Z" fill="#2F2E41"/>
<path d="M156.899 471.694H136.785V507.624H156.899V471.694Z" fill="#2F2E41"/>
<path d="M128.405 425.737C140.902 425.737 151.033 415.636 151.033 403.176C151.033 390.716 140.902 380.616 128.405 380.616C115.908 380.616 105.777 390.716 105.777 403.176C105.777 415.636 115.908 425.737 128.405 425.737Z" fill="white"/>
<path d="M128.405 410.697C132.571 410.697 135.947 407.33 135.947 403.176C135.947 399.023 132.571 395.656 128.405 395.656C124.239 395.656 120.862 399.023 120.862 403.176C120.862 407.33 124.239 410.697 128.405 410.697Z" fill="#3F3D56"/>
<path d="M62.5061 358.5C57.1603 334.629 74.2489 310.509 100.675 304.626C127.101 298.742 152.857 313.324 158.203 337.195C163.548 361.065 146.035 369.869 119.609 375.752C93.1834 381.635 67.852 382.37 62.5061 358.5Z" fill="#CCCCCC"/>
<path d="M82.0669 403.402C84.5264 398.232 73.1292 387.708 56.6104 379.897C40.0917 372.085 24.7068 369.944 22.2473 375.115C19.7878 380.285 31.185 390.809 47.7037 398.62C64.2225 406.432 79.6074 408.573 82.0669 403.402Z" fill="#2F2E41"/>
<path d="M94.208 443.702C94.208 450.163 110.893 462.92 129.406 462.92C147.92 462.92 165.279 444.731 165.279 438.271C165.279 431.81 147.92 439.524 129.406 439.524C110.893 439.524 94.208 437.241 94.208 443.702Z" fill="white"/>
<path d="M357.586 514.309C366.843 514.309 374.348 511.503 374.348 508.042C374.348 504.581 366.843 501.775 357.586 501.775C348.329 501.775 340.825 504.581 340.825 508.042C340.825 511.503 348.329 514.309 357.586 514.309Z" fill="#2F2E41"/>
<path d="M317.359 513.473C326.616 513.473 334.12 510.667 334.12 507.206C334.12 503.745 326.616 500.939 317.359 500.939C308.102 500.939 300.598 503.745 300.598 507.206C300.598 510.667 308.102 513.473 317.359 513.473Z" fill="#2F2E41"/>
<path d="M297.826 415.646C300.692 410.689 290.176 399.29 274.337 390.186C258.498 381.082 243.334 377.721 240.468 382.678C237.601 387.636 248.117 399.035 263.957 408.139C279.796 417.243 294.959 420.604 297.826 415.646Z" fill="#2F2E41"/>
<path d="M344.177 485.899C380.742 485.899 410.384 456.345 410.384 419.888C410.384 383.431 380.742 353.877 344.177 353.877C307.612 353.877 277.971 383.431 277.971 419.888C277.971 456.345 307.612 485.899 344.177 485.899Z" fill="#2F2E41"/>
<path d="M374.347 471.694H354.233V507.624H374.347V471.694Z" fill="#2F2E41"/>
<path d="M334.12 471.694H314.007V507.624H334.12V471.694Z" fill="#2F2E41"/>
<path d="M328.666 425.737C341.163 425.737 351.293 415.636 351.293 403.176C351.293 390.716 341.163 380.616 328.666 380.616C316.169 380.616 306.038 390.716 306.038 403.176C306.038 415.636 316.169 425.737 328.666 425.737Z" fill="white"/>
<path d="M323.213 405.409C326.168 402.465 326.187 397.706 323.255 394.78C320.323 391.854 315.551 391.869 312.595 394.813C309.64 397.757 309.621 402.515 312.553 405.441C315.485 408.367 320.257 408.353 323.213 405.409Z" fill="#3F3D56"/>
<path d="M351.297 375.752C324.871 369.869 307.358 361.065 312.703 337.195C318.049 313.324 343.805 298.742 370.231 304.626C396.657 310.509 413.746 334.629 408.4 358.5C403.054 382.37 377.723 381.635 351.297 375.752Z" fill="#00C3A5"/>
<path d="M413.411 470.206C418.958 468.737 419.65 453.264 414.957 435.647C410.264 418.029 401.962 404.938 396.415 406.407C390.868 407.876 390.176 423.349 394.869 440.966C399.562 458.584 407.863 471.675 413.411 470.206Z" fill="#2F2E41"/>
<path d="M329.178 439.525C317.023 439.525 305.627 431.811 305.627 438.272C305.627 444.732 317.023 462.921 329.178 462.921C341.333 462.921 352.287 450.164 352.287 443.703C352.287 437.242 341.333 439.525 329.178 439.525Z" fill="white"/>
<path d="M243.616 310.439H237.737C232.47 310.433 227.42 308.345 223.696 304.631C219.971 300.918 217.876 295.883 217.87 290.632V285.71C217.87 273.52 220.187 263.314 224.756 255.374C230.293 246.138 236.753 237.484 244.037 229.545C248.872 224.696 253.26 219.424 257.146 213.79C259.935 209.413 261.374 204.317 261.287 199.133C261.287 186.905 253.296 180.96 236.858 180.96C227.74 181.063 218.679 182.419 209.933 184.99C206.559 185.95 203.009 186.116 199.56 185.476C196.111 184.835 192.859 183.406 190.059 181.299C187.258 179.193 184.986 176.467 183.422 173.336C181.858 170.206 181.043 166.756 181.043 163.258V153.296C181.024 149.007 182.253 144.804 184.581 141.198C186.909 137.591 190.236 134.736 194.16 132.977C209.607 126.404 226.267 123.136 243.061 123.385C260.654 123.385 276.536 126.332 290.266 132.142C304.021 137.965 314.889 146.177 322.566 156.549C330.221 166.848 334.289 179.359 334.152 192.176C334.152 205.94 330.383 217.928 322.95 227.807C315.598 237.586 305.06 248.291 291.626 259.627C284.548 265.496 277.842 271.795 271.544 278.49C267.476 282.858 264.601 288.195 263.195 293.988C262.411 298.596 260.014 302.778 256.429 305.79C252.844 308.803 248.304 310.45 243.616 310.439Z" fill="#00C3A5"/>
<path d="M240.347 403.586H239.571C229.81 403.58 220.451 399.709 213.551 392.825C206.651 385.941 202.775 376.607 202.775 366.875C202.775 357.143 206.651 347.809 213.551 340.925C220.451 334.041 229.81 330.171 239.571 330.164H240.347C245.184 330.161 249.974 331.108 254.444 332.952C258.914 334.795 262.976 337.499 266.398 340.908C269.819 344.318 272.533 348.366 274.385 352.821C276.237 357.277 277.19 362.052 277.19 366.875C277.19 371.698 276.237 376.474 274.385 380.929C272.533 385.385 269.819 389.433 266.398 392.842C262.976 396.251 258.914 398.955 254.444 400.798C249.974 402.642 245.184 403.589 240.347 403.586Z" fill="#00C3A5"/>
<path d="M479.633 515H1.53728C1.12957 515 0.738579 514.839 0.450283 514.551C0.161986 514.264 0 513.874 0 513.467C0 513.061 0.161986 512.671 0.450283 512.384C0.738579 512.096 1.12957 511.935 1.53728 511.935H479.633C480.041 511.935 480.432 512.096 480.72 512.384C481.008 512.671 481.17 513.061 481.17 513.467C481.17 513.874 481.008 514.264 480.72 514.551C480.432 514.839 480.041 515 479.633 515Z" fill="#CCCCCC"/>
<path d="M802.463 515H547.274C546.866 515 546.475 514.839 546.187 514.551C545.898 514.264 545.736 513.874 545.736 513.467C545.736 513.061 545.898 512.671 546.187 512.384C546.475 512.096 546.866 511.935 547.274 511.935H802.463C802.871 511.935 803.262 512.096 803.55 512.384C803.838 512.671 804 513.061 804 513.467C804 513.874 803.838 514.264 803.55 514.551C803.262 514.839 802.871 515 802.463 515Z" fill="#CCCCCC"/>
<path d="M644.078 470.229C662.357 469.873 677.084 464.946 676.972 459.224C676.859 453.503 661.95 449.154 643.671 449.51C625.392 449.867 610.665 454.794 610.777 460.515C610.89 466.236 625.799 470.585 644.078 470.229Z" fill="#2F2E41"/>
<path d="M627.461 228.378H587.491C585.453 228.376 583.5 227.568 582.059 226.131C580.618 224.694 579.807 222.746 579.805 220.714V180.863C579.807 178.831 580.618 176.883 582.059 175.447C583.5 174.01 585.453 173.202 587.491 173.199H627.461C629.498 173.202 631.452 174.01 632.893 175.447C634.334 176.883 635.145 178.831 635.147 180.863V220.714C635.145 222.746 634.334 224.694 632.893 226.131C631.452 227.568 629.498 228.376 627.461 228.378ZM587.491 176.265C586.268 176.266 585.096 176.751 584.232 177.613C583.367 178.475 582.881 179.644 582.879 180.863V220.714C582.881 221.933 583.367 223.102 584.232 223.964C585.096 224.826 586.268 225.311 587.491 225.313H627.461C628.683 225.311 629.856 224.826 630.72 223.964C631.585 223.102 632.071 221.933 632.072 220.714V180.863C632.071 179.644 631.585 178.475 630.72 177.613C629.856 176.751 628.683 176.266 627.461 176.265H587.491Z" fill="#F2F2F2"/>
<path d="M645.908 202.321H605.938C603.901 202.319 601.947 201.511 600.506 200.074C599.065 198.637 598.254 196.69 598.252 194.658V154.807C598.254 152.775 599.065 150.827 600.506 149.39C601.947 147.953 603.901 147.145 605.938 147.143H645.908C647.946 147.145 649.899 147.953 651.34 149.39C652.781 150.827 653.592 152.775 653.594 154.807V194.658C653.592 196.69 652.781 198.637 651.34 200.074C649.899 201.511 647.946 202.319 645.908 202.321ZM605.938 150.208C604.716 150.21 603.543 150.695 602.679 151.557C601.814 152.419 601.328 153.587 601.327 154.807V194.658C601.328 195.877 601.814 197.046 602.679 197.908C603.543 198.77 604.716 199.255 605.938 199.256H645.908C647.131 199.255 648.303 198.77 649.167 197.908C650.032 197.046 650.518 195.877 650.52 194.658V154.807C650.518 153.587 650.032 152.419 649.167 151.557C648.303 150.695 647.131 150.21 645.908 150.208H605.938Z" fill="#F2F2F2"/>
<path d="M330.764 75.1041H290.795C288.757 75.1018 286.803 74.2936 285.362 72.8569C283.921 71.4202 283.111 69.4722 283.108 67.4404V27.5892C283.111 25.5574 283.921 23.6095 285.362 22.1728C286.803 20.7361 288.757 19.9279 290.795 19.9255H330.764C332.802 19.9279 334.756 20.7361 336.197 22.1728C337.638 23.6095 338.448 25.5574 338.451 27.5892V67.4404C338.448 69.4722 337.638 71.4202 336.197 72.8569C334.756 74.2936 332.802 75.1018 330.764 75.1041ZM290.795 22.991C289.572 22.9923 288.4 23.4772 287.535 24.3393C286.671 25.2013 286.184 26.3701 286.183 27.5892V67.4404C286.184 68.6595 286.671 69.8283 287.535 70.6904C288.4 71.5524 289.572 72.0373 290.795 72.0386H330.764C331.987 72.0373 333.159 71.5524 334.024 70.6904C334.888 69.8283 335.375 68.6595 335.376 67.4404V27.5892C335.375 26.3701 334.888 25.2013 334.024 24.3393C333.159 23.4772 331.987 22.9923 330.764 22.991H290.795Z" fill="#F2F2F2"/>
<path d="M306.168 55.1786H266.198C264.16 55.1762 262.207 54.3681 260.766 52.9313C259.325 51.4946 258.514 49.5467 258.512 47.5149V7.66369C258.514 5.63187 259.325 3.68395 260.766 2.24723C262.207 0.810516 264.16 0.00232448 266.198 0H306.168C308.205 0.00232448 310.159 0.810516 311.6 2.24723C313.041 3.68395 313.852 5.63187 313.854 7.66369V47.5149C313.852 49.5467 313.041 51.4946 311.6 52.9313C310.159 54.3681 308.205 55.1762 306.168 55.1786ZM266.198 3.06548C264.975 3.06681 263.803 3.55169 262.939 4.41373C262.074 5.27578 261.588 6.44458 261.586 7.66369V47.5149C261.588 48.734 262.074 49.9028 262.939 50.7648C263.803 51.6269 264.975 52.1118 266.198 52.1131H306.168C307.39 52.1118 308.563 51.6269 309.427 50.7648C310.292 49.9028 310.778 48.734 310.779 47.5149V7.66369C310.778 6.44458 310.292 5.27578 309.427 4.41373C308.563 3.55169 307.39 3.06681 306.168 3.06548H266.198Z" fill="#F2F2F2"/>
<path d="M493.808 290.664C499.298 290.664 503.749 286.226 503.749 280.752C503.749 275.277 499.298 270.84 493.808 270.84C488.317 270.84 483.866 275.277 483.866 280.752C483.866 286.226 488.317 290.664 493.808 290.664Z" fill="#F2F2F2"/>
<path d="M94.1133 255.411C99.6038 255.411 104.055 250.973 104.055 245.499C104.055 240.025 99.6038 235.587 94.1133 235.587C88.6228 235.587 84.1719 240.025 84.1719 245.499C84.1719 250.973 88.6228 255.411 94.1133 255.411Z" fill="#F2F2F2"/>
<path d="M764.369 341.244C769.86 341.244 774.311 336.806 774.311 331.332C774.311 325.858 769.86 321.42 764.369 321.42C758.879 321.42 754.428 325.858 754.428 331.332C754.428 336.806 758.879 341.244 764.369 341.244Z" fill="#F2F2F2"/>
</g>
<defs>
<clipPath id="clip0_91_288">
<rect width="804" height="515" fill="white"/>
</clipPath>
</defs>
</svg>
